<?xml version="1.0" standalone="no"?>
<!DOCTYPE svg PUBLIC "-//W3C//DTD SVG 20010904//EN"
 "http://www.w3.org/TR/2001/REC-SVG-20010904/DTD/svg10.dtd">
<svg version="1.0" xmlns="http://www.w3.org/2000/svg"
 width="500.000000pt" height="500.000000pt" viewBox="0 0 500.000000 500.000000"
 preserveAspectRatio="xMidYMid meet">
<metadata>
Created by potrace 1.14, written by Peter Selinger 2001-2017
</metadata>
<g transform="translate(0.000000,500.000000) scale(0.100000,-0.100000)"
fill="#000000" stroke="none">
<path d="M2446 4793 c-3 -3 -211 -57 -260 -67 -24 -6 -22 -5 -186 -46 -69 -17
-132 -33 -140 -35 -8 -2 -42 -11 -75 -20 -33 -9 -213 -55 -400 -102 -187 -47
-349 -87 -360 -90 -11 -3 -29 -6 -40 -8 -11 -1 -33 -8 -49 -14 -16 -6 -31 -9
-34 -7 -2 3 -12 1 -21 -3 -9 -5 -29 -11 -46 -14 -16 -3 -37 -8 -45 -11 -8 -3
-26 -7 -40 -10 -70 -13 -478 -118 -499 -129 -38 -19 -70 -115 -49 -144 6 -7 5
-20 -2 -33 -8 -14 -8 -25 -1 -33 6 -8 6 -18 1 -27 -5 -9 -5 -19 2 -27 7 -9 7
-13 -2 -13 -9 0 -9 -4 -2 -13 7 -8 7 -18 2 -27 -5 -9 -5 -19 2 -27 7 -9 7 -13
-1 -13 -8 0 -9 -5 -3 -17 6 -9 6 -29 2 -45 -5 -15 -5 -30 0 -33 5 -3 6 -16 2
-28 -9 -27 -9 -48 1 -64 4 -7 3 -22 -3 -33 -7 -13 -7 -26 -2 -37 6 -9 6 -29 2
-45 -5 -16 -5 -30 1 -33 5 -4 5 -13 -1 -24 -6 -12 -5 -22 2 -29 9 -9 9 -12 0
-12 -9 0 -10 -5 -2 -19 7 -14 7 -22 0 -26 -8 -5 -8 -11 0 -20 8 -10 8 -19 0
-34 -7 -15 -8 -27 0 -40 7 -14 7 -22 0 -26 -8 -5 -8 -11 0 -20 8 -10 8 -19 0
-34 -7 -15 -7 -21 0 -21 7 0 7 -6 0 -21 -8 -14 -8 -24 -1 -32 6 -8 6 -18 1
-27 -5 -9 -5 -19 1 -27 7 -8 7 -19 -1 -33 -8 -14 -8 -25 -1 -33 6 -8 6 -18 1
-27 -5 -9 -5 -19 2 -27 7 -9 7 -13 -1 -13 -8 0 -9 -5 -1 -19 7 -14 7 -22 0
-26 -8 -5 -7 -11 1 -21 9 -11 9 -14 0 -14 -8 0 -9 -5 -3 -17 6 -9 6 -29 2 -45
-5 -15 -5 -30 0 -33 5 -3 6 -16 2 -28 -9 -27 -9 -48 1 -64 4 -7 3 -22 -3 -33
-6 -12 -7 -27 -2 -37 5 -10 6 -29 2 -43 -4 -14 -3 -33 2 -42 5 -10 4 -19 -2
-23 -8 -5 -7 -11 1 -21 9 -11 9 -14 0 -14 -8 0 -9 -5 -1 -19 7 -14 7 -22 0
-26 -8 -5 -8 -11 0 -20 8 -10 8 -19 0 -34 -7 -15 -8 -27 0 -40 7 -14 7 -22 0
-26 -8 -5 -8 -11 0 -20 8 -10 8 -19 0 -34 -7 -15 -7 -21 0 -21 7 0 7 -6 0 -21
-8 -14 -8 -24 -1 -32 6 -8 6 -18 1 -27 -5 -9 -5 -19 1 -27 7 -8 7 -18 -1 -32
-7 -15 -8 -27 0 -40 7 -14 7 -22 0 -26 -8 -5 -7 -11 1 -21 9 -11 9 -14 0 -14
-8 0 -9 -5 -1 -19 7 -14 7 -22 0 -26 -8 -5 -7 -11 1 -21 9 -11 9 -14 0 -14 -8
0 -9 -5 -3 -17 6 -9 6 -29 2 -45 -5 -15 -5 -30 0 -33 5 -3 6 -16 2 -28 -9 -27
-9 -48 1 -64 4 -7 3 -22 -3 -33 -6 -12 -7 -27 -2 -37 5 -10 6 -29 2 -43 -4
-14 -3 -33 2 -42 5 -10 4 -19 -2 -23 -8 -5 -7 -11 1 -21 9 -11 9 -14 -1 -14
-9 0 -9 -4 -2 -13 7 -8 7 -18 2 -27 -5 -9 -5 -19 1 -27 7 -8 7 -18 -1 -33 -6
-11 -8 -26 -4 -32 4 -7 9 -26 11 -42 2 -16 11 -39 21 -49 17 -20 517 -270 540
-270 6 0 12 -4 12 -8 0 -3 10 -10 22 -14 39 -13 198 -89 697 -334 46 -22 90
-41 98 -41 7 0 13 -4 13 -10 0 -5 4 -10 9 -10 5 0 30 -10 57 -22 27 -12 52
-21 57 -20 4 1 7 -3 7 -8 0 -6 5 -10 11 -10 7 0 86 -37 178 -81 535 -263 617
-301 660 -305 26 -2 59 10 140 53 58 31 149 78 201 106 52 27 118 62 145 77
140 77 325 169 325 163 0 -5 4 -3 8 3 4 6 97 57 207 114 110 56 205 106 210
110 33 23 376 198 389 198 5 0 12 4 15 9 3 4 47 29 96 54 50 25 140 72 200
104 255 134 260 137 268 192 3 17 8 37 12 42 3 6 1 11 -5 11 -8 0 -8 6 0 20 8
14 8 26 0 40 -8 14 -8 20 0 20 8 0 8 6 0 20 -8 14 -8 20 0 20 8 0 8 6 0 20 -7
13 -7 20 -1 20 7 0 7 8 2 23 -5 12 -5 31 -1 42 4 11 3 28 -2 38 -5 11 -5 17 1
17 7 0 7 9 1 26 -6 14 -7 23 -2 21 4 -3 7 10 7 29 0 19 -4 34 -8 34 -4 0 -3 9
3 19 7 13 7 22 0 26 -6 4 -7 12 -1 23 5 9 5 26 0 39 -5 14 -5 23 1 23 6 0 6
10 0 26 -6 14 -7 23 -2 21 4 -3 7 10 7 29 0 19 -2 34 -5 34 -7 0 -4 66 5 79 3
6 1 11 -5 11 -8 0 -8 6 0 20 8 14 8 20 0 20 -8 0 -8 6 0 20 8 14 8 20 0 20 -8
0 -8 6 0 20 8 14 8 20 0 20 -8 0 -8 6 0 20 8 14 8 20 0 20 -8 0 -8 6 0 20 8
14 8 20 0 20 -8 0 -8 6 0 20 8 14 8 20 0 20 -7 0 -7 6 0 21 8 15 8 24 0 34 -8
9 -8 15 0 20 6 4 7 12 1 23 -6 11 -6 24 0 34 6 11 6 19 -1 23 -6 4 -7 11 -3
18 9 15 10 57 2 57 -4 0 -4 14 1 30 5 19 5 28 -1 25 -5 -4 -5 3 0 17 5 15 5
31 0 41 -7 11 -6 17 1 17 8 0 8 6 0 20 -8 14 -8 20 0 20 8 0 8 6 0 20 -7 13
-7 20 -1 20 7 0 7 8 2 23 -5 12 -5 31 -1 42 4 11 3 28 -2 38 -5 11 -5 17 1 17
7 0 7 9 1 26 -6 14 -7 23 -2 21 9 -6 8 46 -2 61 -4 6 -2 21 4 32 8 14 8 20 0
20 -8 0 -8 6 0 20 8 14 8 20 0 20 -8 0 -8 6 0 20 8 14 8 20 0 20 -8 0 -8 6 0
20 8 14 8 20 0 20 -8 0 -8 6 0 20 8 14 8 20 0 20 -8 0 -8 6 0 20 8 14 8 20 0
20 -8 0 -8 6 0 20 8 14 8 20 0 20 -8 0 -8 6 0 20 8 14 8 26 0 40 -8 14 -8 20
0 20 6 0 8 5 5 11 -10 16 -12 69 -3 69 4 0 4 10 -1 23 -5 12 -5 31 -1 42 4 11
3 28 -2 38 -5 11 -5 17 1 17 7 0 7 9 1 26 -6 14 -7 23 -2 21 4 -3 7 10 7 29 0
19 -4 34 -8 34 -4 0 -3 8 2 18 7 13 7 22 0 29 -7 7 -7 13 -1 17 7 4 7 17 2 36
-5 18 -5 30 0 30 6 0 5 11 0 26 -6 14 -7 23 -2 21 4 -3 7 10 7 29 0 19 -2 34
-5 34 -7 0 -4 66 4 79 4 5 2 13 -4 16 -6 4 -7 12 -3 18 10 15 10 38 0 55 -5 6
-6 12 -2 12 13 0 -25 57 -47 68 -19 10 -299 83 -378 99 -42 8 -55 11 -55 13 0
2 -17 6 -60 15 -16 4 -34 8 -40 9 -5 1 -19 5 -30 9 -11 3 -31 8 -45 11 -47 9
-69 15 -432 106 -200 51 -370 93 -378 95 -8 2 -96 25 -195 51 -99 26 -190 47
-202 47 -13 1 -23 4 -23 7 0 6 -120 34 -145 35 -5 0 -12 2 -15 6 -18 19 -290
66 -304 52z m298 -259 c120 -30 226 -57 235 -59 9 -2 63 -15 121 -30 58 -15
114 -29 125 -31 11 -1 20 -3 20 -4 0 -2 30 -9 60 -14 11 -2 28 -7 37 -11 10
-4 29 -8 43 -9 14 0 25 -3 25 -6 0 -3 8 -6 18 -7 9 -1 208 -50 442 -108 234
-59 435 -110 448 -112 23 -6 30 -19 10 -20 -7 0 -70 -21 -140 -46 -71 -25
-128 -42 -128 -39 0 4 -4 3 -8 -3 -6 -9 -112 -50 -156 -60 -10 -2 -35 -10 -55
-17 -20 -7 -38 -13 -41 -13 -3 -1 -18 -7 -35 -14 -16 -7 -37 -14 -45 -16 -13
-3 -596 -207 -715 -251 -22 -8 -47 -17 -55 -19 -8 -2 -62 -20 -120 -40 -58
-21 -109 -38 -115 -40 -5 -1 -19 -5 -30 -9 -77 -29 -92 -33 -115 -25 -14 4
-65 20 -115 35 -109 33 -353 111 -530 169 -71 23 -242 79 -380 123 -211 69
-264 85 -315 97 -3 1 -12 4 -20 8 -16 6 -92 31 -100 32 -3 1 -45 14 -95 30
-49 16 -92 29 -95 29 -3 1 -10 4 -16 8 -6 4 -21 9 -35 12 -13 2 -64 18 -114
34 l-90 30 40 10 c98 26 522 132 545 136 14 3 47 11 75 20 27 8 51 14 53 11 2
-2 19 3 38 11 19 8 34 12 34 9 0 -2 11 0 25 5 14 5 38 12 53 15 15 3 36 8 47
10 11 3 30 7 43 9 12 3 26 7 30 10 9 5 50 15 92 21 14 2 52 11 85 20 33 10 67
18 75 20 8 2 62 15 120 30 58 15 114 29 125 31 11 2 94 24 185 48 91 24 172
42 180 40 8 -2 114 -29 234 -60z m-2290 -539 c6 -1 18 -5 26 -8 11 -5 167 -53
200 -62 3 -1 12 -4 20 -8 8 -3 76 -24 150 -47 74 -23 196 -62 270 -86 483
-158 662 -216 675 -218 11 -2 112 -35 135 -43 8 -3 20 -7 27 -9 14 -3 111 -33
133 -41 8 -3 22 -7 30 -9 8 -2 96 -30 195 -63 l180 -59 3 -1441 c1 -792 0
-1441 -3 -1441 -2 0 -73 33 -157 74 -84 40 -168 80 -185 87 -18 8 -33 17 -33
21 0 5 -3 7 -7 6 -13 -2 -77 27 -523 244 -118 58 -235 114 -260 125 -99 46
-256 121 -480 230 -129 63 -269 131 -310 150 -41 19 -90 42 -107 51 l-33 17 0
1273 0 1273 21 -6 c12 -4 27 -8 33 -10z m4124 -2547 c-12 -9 -25 -16 -28 -15
-4 1 -229 -115 -345 -178 -60 -33 -265 -140 -485 -253 -107 -55 -280 -145
-385 -201 -104 -56 -275 -145 -380 -198 -104 -52 -204 -104 -221 -114 -28 -17
-33 -17 -38 -4 -3 8 -2 15 2 15 4 0 5 43 2 96 -3 53 -2 98 3 101 4 2 2 13 -3
24 -6 11 -7 19 -1 19 5 0 6 14 1 35 -4 20 -4 38 1 41 5 3 5 13 -1 25 -6 11 -7
19 -1 19 5 0 6 14 1 35 -4 20 -4 38 1 41 5 3 5 13 -1 25 -6 10 -7 19 -3 19 4
0 6 43 3 96 -3 53 -2 98 3 101 4 2 2 13 -3 24 -6 11 -7 19 -1 19 5 0 6 14 1
35 -4 20 -4 38 1 41 5 3 5 13 -1 25 -6 11 -7 19 -1 19 5 0 6 14 1 35 -4 20 -4
38 1 41 5 3 5 13 -1 25 -6 10 -7 19 -3 19 4 0 6 43 3 96 -3 53 -2 98 3 101 4
2 2 13 -3 24 -6 11 -7 19 -1 19 5 0 6 14 1 35 -4 20 -4 38 1 41 5 3 5 13 -1
25 -6 11 -7 19 -1 19 5 0 6 14 1 35 -4 20 -4 38 1 41 5 3 5 13 -1 25 -6 10 -7
19 -3 19 4 0 6 43 3 96 -3 53 -2 98 3 101 4 2 2 13 -3 24 -6 11 -7 19 -1 19 5
0 6 14 1 35 -4 20 -4 38 1 41 5 3 5 13 -1 25 -6 11 -7 19 -1 19 5 0 6 14 1 35
-4 20 -4 38 1 41 5 3 5 13 -1 25 -6 11 -7 19 -1 19 5 0 6 14 1 35 -4 20 -4 38
1 41 5 3 5 13 -1 25 -6 10 -7 19 -2 19 4 0 5 25 2 56 -3 30 -3 57 2 60 4 3 3
14 -2 25 -6 10 -7 19 -2 19 4 0 5 25 2 56 -3 30 -3 57 2 60 4 3 3 14 -2 25 -6
10 -7 19 -2 19 4 0 5 25 2 56 -3 30 -3 57 2 60 4 3 3 14 -2 25 -6 10 -7 19 -2
19 4 0 5 25 2 56 -3 30 -3 57 2 60 4 3 3 14 -2 25 -6 10 -7 19 -2 19 4 0 5 25
2 56 -3 30 -3 57 1 59 3 3 4 15 2 28 -6 28 -23 20 207 98 96 33 184 64 195 68
11 5 43 16 70 26 28 9 57 19 65 22 8 3 20 7 25 8 18 4 199 66 220 75 11 5 61
22 110 39 50 17 142 49 205 71 63 23 174 61 245 87 72 25 137 48 145 51 8 3
17 6 20 6 4 1 80 28 120 43 8 3 22 8 30 10 8 2 22 5 30 8 8 2 15 4 15 5 0 1
43 16 95 33 l95 33 3 -1271 2 -1270 -22 -17z"/>
<path d="M2537 4314 c-1 -1 -31 -4 -67 -7 -112 -9 -213 -60 -232 -117 -16 -48
55 -129 127 -145 17 -4 37 -9 45 -12 12 -3 130 -14 165 -14 48 -1 143 14 188
31 169 63 160 187 -16 244 -32 10 -202 27 -210 20z"/>
<path d="M1733 2976 c-101 -63 -116 -216 -36 -369 120 -228 355 -277 422 -87
66 188 -100 462 -289 477 -46 3 -62 0 -97 -21z"/>
<path d="M1263 2618 c-69 -18 -114 -96 -115 -197 -1 -138 97 -297 223 -361 64
-33 138 -25 184 20 73 71 79 201 15 336 -71 147 -199 232 -307 202z"/>
<path d="M785 2262 c-32 -11 -50 -25 -73 -57 -27 -36 -33 -63 -33 -130 0 -99
27 -176 90 -255 46 -57 66 -75 118 -100 103 -52 188 -16 228 95 7 17 7 60 1
153 0 12 -4 22 -7 22 -3 0 -6 6 -6 13 0 26 -56 128 -95 172 -63 71 -158 108
-223 87z"/>
<path d="M3485 2826 c-49 -14 -105 -43 -105 -56 0 -6 -5 -10 -10 -10 -10 0
-34 -23 -70 -67 -22 -27 -67 -123 -75 -163 -20 -90 -2 -188 41 -236 40 -43
155 -63 191 -32 7 6 13 7 13 4 0 -8 93 55 98 66 2 3 12 17 23 30 93 106 130
280 80 380 -36 73 -107 105 -186 84z"/>
<path d="M4032 2376 c-147 -76 -244 -297 -195 -442 17 -49 57 -93 93 -103 26
-6 91 -1 109 9 10 5 21 6 25 3 3 -3 6 -1 6 5 0 7 5 12 10 12 23 0 103 80 135
134 62 107 79 259 36 329 -47 76 -133 97 -219 53z"/>
</g>
</svg>
